<?xml version="1.0" standalone="no"?>
<!DOCTYPE svg PUBLIC "-//W3C//DTD SVG 20010904//EN"
 "http://www.w3.org/TR/2001/REC-SVG-20010904/DTD/svg10.dtd">
<svg version="1.0" xmlns="http://www.w3.org/2000/svg"
 width="512.000000pt" height="512.000000pt" viewBox="0 0 512.000000 512.000000"
 preserveAspectRatio="xMidYMid meet">
<metadata>
Created by potrace 1.14, written by Peter Selinger 2001-2017
</metadata>
<g transform="translate(0.000000,512.000000) scale(0.100000,-0.100000)"
fill="#000000" stroke="none">
<path d="M3790 3890 c-201 -11 -211 -13 -264 -49 -94 -65 -268 -316 -580 -838
-103 -172 -196 -319 -208 -328 -13 -8 -36 -15 -52 -15 -45 0 -134 97 -325 355
-219 295 -273 366 -350 460 -97 118 -241 264 -283 286 -47 24 -120 24 -623 4
-465 -19 -498 -26 -560 -120 -48 -73 -57 -125 -63 -330 -10 -402 45 -1607 93
-2044 17 -153 39 -213 100 -273 70 -69 93 -73 368 -60 133 6 259 16 280 23 52
17 113 72 128 116 8 26 10 138 8 414 -4 375 -4 378 17 400 15 14 28 19 42 15
23 -8 29 -16 224 -346 152 -256 286 -465 345 -537 95 -117 252 -134 349 -38
48 48 278 430 437 725 138 255 137 254 170 258 45 5 52 -30 82 -413 15 -192
31 -367 36 -388 15 -59 62 -104 127 -123 51 -15 88 -16 382 -5 458 16 698 30
747 43 61 15 115 66 148 140 l29 63 4 297 c7 493 -43 1603 -89 1963 -23 185
-71 279 -167 323 -54 25 -67 26 -227 28 -93 1 -240 -2 -325 -6z"/>
</g>
</svg>
